<svg width="26" height="23" viewBox="0 0 26 23" fill="none" xmlns="http://www.w3.org/2000/svg">
<path fill-rule="evenodd" clip-rule="evenodd" d="M12.5274 0.477367C12.6787 0.628303 12.7988 0.80761 12.8807 1.00502C12.9626 1.20242 13.0048 1.41405 13.0048 1.62778C13.0048 1.8415 12.9626 2.05313 12.8807 2.25054C12.7988 2.44794 12.6787 2.62725 12.5274 2.77819L3.92535 11.377L12.5274 19.9758C12.6785 20.1269 12.7983 20.3063 12.8801 20.5037C12.9619 20.701 13.0039 20.9126 13.0039 21.1263C13.0039 21.3399 12.9619 21.5515 12.8801 21.7489C12.7983 21.9462 12.6785 22.1256 12.5274 22.2767C12.3764 22.4277 12.197 22.5476 11.9996 22.6293C11.8022 22.7111 11.5907 22.7532 11.377 22.7532C11.1634 22.7532 10.9518 22.7111 10.7544 22.6293C10.557 22.5476 10.3777 22.4277 10.2266 22.2767L0.477367 12.5274C0.326049 12.3765 0.205993 12.1972 0.124079 11.9998C0.0421642 11.8024 0 11.5907 0 11.377C0 11.1633 0.0421642 10.9517 0.124079 10.7543C0.205993 10.5568 0.326049 10.3775 0.477367 10.2266L10.2266 0.477367C10.3775 0.326048 10.5569 0.205993 10.7543 0.124078C10.9517 0.0421634 11.1633 0 11.377 0C11.5907 0 11.8024 0.0421634 11.9998 0.124078C12.1972 0.205993 12.3765 0.326048 12.5274 0.477367Z" fill="white"/>
<path fill-rule="evenodd" clip-rule="evenodd" d="M1.62779 11.3771C1.62779 10.9461 1.79898 10.5328 2.10371 10.2281C2.40843 9.92339 2.82172 9.7522 3.25267 9.7522H24.376C24.807 9.7522 25.2203 9.92339 25.525 10.2281C25.8297 10.5328 26.0009 10.9461 26.0009 11.3771C26.0009 11.808 25.8297 12.2213 25.525 12.526C25.2203 12.8308 24.807 13.0019 24.376 13.0019H3.25267C2.82172 13.0019 2.40843 12.8308 2.10371 12.526C1.79898 12.2213 1.62779 11.808 1.62779 11.3771Z" fill="white"/>
</svg>
