<svg width="24" height="24" viewBox="0 0 38 38" fill="none" xmlns="http://www.w3.org/2000/svg">
<path fill-rule="evenodd" clip-rule="evenodd" d="M19 35.625C23.4092 35.625 27.6379 33.8734 30.7556 30.7556C33.8734 27.6379 35.625 23.4092 35.625 19C35.625 14.5908 33.8734 10.3621 30.7556 7.24435C27.6379 4.12656 23.4092 2.375 19 2.375C14.5908 2.375 10.3621 4.12656 7.24435 7.24435C4.12656 10.3621 2.375 14.5908 2.375 19C2.375 23.4092 4.12656 27.6379 7.24435 30.7556C10.3621 33.8734 14.5908 35.625 19 35.625ZM19 38C24.0391 38 28.8718 35.9982 32.435 32.435C35.9982 28.8718 38 24.0391 38 19C38 13.9609 35.9982 9.12816 32.435 5.56497C28.8718 2.00178 24.0391 0 19 0C13.9609 0 9.12816 2.00178 5.56497 5.56497C2.00178 9.12816 0 13.9609 0 19C0 24.0391 2.00178 28.8718 5.56497 32.435C9.12816 35.9982 13.9609 38 19 38Z" fill="#D8C16B"/>
<path fill-rule="evenodd" clip-rule="evenodd" d="M11.0343 19.8408C11.1446 19.9514 11.2756 20.0391 11.4199 20.099C11.5642 20.1589 11.7188 20.1897 11.875 20.1897C12.0312 20.1897 12.1859 20.1589 12.3301 20.099C12.4744 20.0391 12.6055 19.9514 12.7158 19.8408L19 13.5542L25.2843 19.8408C25.5072 20.0638 25.8097 20.189 26.125 20.189C26.4404 20.189 26.7428 20.0638 26.9658 19.8408C27.1887 19.6178 27.314 19.3154 27.314 19C27.314 18.6847 27.1887 18.3823 26.9658 18.1593L19.8408 11.0343C19.7305 10.9237 19.5994 10.836 19.4551 10.7761C19.3109 10.7162 19.1562 10.6854 19 10.6854C18.8438 10.6854 18.6892 10.7162 18.5449 10.7761C18.4006 10.836 18.2696 10.9237 18.1593 11.0343L11.0343 18.1593C10.9237 18.2696 10.8359 18.4006 10.7761 18.5449C10.7162 18.6892 10.6854 18.8439 10.6854 19C10.6854 19.1562 10.7162 19.3109 10.7761 19.4552C10.8359 19.5994 10.9237 19.7305 11.0343 19.8408Z" fill="#D8C16B"/>
<path fill-rule="evenodd" clip-rule="evenodd" d="M19 27.3125C19.3149 27.3125 19.617 27.1874 19.8397 26.9647C20.0624 26.742 20.1875 26.4399 20.1875 26.125V14.25C20.1875 13.9351 20.0624 13.633 19.8397 13.4103C19.617 13.1876 19.3149 13.0625 19 13.0625C18.6851 13.0625 18.383 13.1876 18.1603 13.4103C17.9376 13.633 17.8125 13.9351 17.8125 14.25V26.125C17.8125 26.4399 17.9376 26.742 18.1603 26.9647C18.383 27.1874 18.6851 27.3125 19 27.3125Z" fill="#D8C16B"/>
</svg>
